# xmcd CD database file
#
# Track frame offsets:
#	150
#	15849
#	42369
#	65462
#	87280
#	112978
#	142096
#	162131
#	184476
#
# Disc length: 2822 seconds
#
# Revision: 0
# Processed by: cddbd v1.5.1PL0 Copyright (c) Steve Scherf et al.
# Submitted via: CDex 1.51
#
DISCID=710b0409
DTITLE=D.wat. - wave ride
DYEAR=1999
DGENRE=Techno
TTITLE0=invincible magic bits
TTITLE1=can you get on the sinewave?
TTITLE2=believe the music or not
TTITLE3=fakeface realface(8p edit)
TTITLE4=winder stress
TTITLE5=alternative masterpiece(8p edit)
TTITLE6=steal powder snow
TTITLE7=15
TTITLE8=voyager
EXTD=YEAR: 1999
EXTT0=
EXTT1=
EXTT2=
EXTT3=
EXTT4=
EXTT5=
EXTT6=
EXTT7=
EXTT8=
PLAYORDER=
